<svg width="164" height="59" viewBox="0 0 164 59" fill="none" xmlns="http://www.w3.org/2000/svg">
<path fill-rule="evenodd" clip-rule="evenodd" d="M77.3131 23.367H74.17V35.6193H77.3131C81.2212 35.6193 83.3352 33.5379 83.3352 29.5001C83.3212 25.4483 81.2212 23.367 77.3131 23.367ZM77.2992 19.6621C84.3087 19.6621 87.6187 23.7971 87.6187 29.5001C87.6187 35.203 84.2948 39.338 77.2992 39.338H69.9281V19.6621H77.2992Z" fill="#2C3144"/>
<path fill-rule="evenodd" clip-rule="evenodd" d="M97.2012 19.6621C99.4403 19.6621 101.721 20.2033 103.335 21.1191V24.9072C101.735 23.7694 99.6072 23.2004 97.4932 23.2282C95.4349 23.2559 94.4057 23.8249 94.4057 24.9904C94.4057 28.2651 104.767 27.044 104.767 33.7738C104.767 38.0198 101.36 39.338 97.382 39.338C94.7534 39.338 92.3196 38.7136 90.3725 37.6313V33.7738C92.5421 35.203 94.9203 35.7719 97.076 35.7719C99.2595 35.7719 100.622 35.314 100.622 33.9681C100.622 30.4297 90.2612 31.748 90.2612 25.0598C90.289 21.3966 93.4739 19.6621 97.2012 19.6621Z" fill="#2C3144"/>
<path fill-rule="evenodd" clip-rule="evenodd" d="M121.832 19.6621V23.367H112.18V27.5575H120.983V31.2345H112.18V35.6193H121.999V39.3242H107.966V19.6621H121.832Z" fill="#2C3144"/>
<path fill-rule="evenodd" clip-rule="evenodd" d="M125.406 39.3242V19.6621H129.37L138.535 32.4972C138.479 31.6786 138.451 30.6934 138.451 29.8053V19.6621H142.666V39.3242H138.702L129.537 26.489C129.592 27.3077 129.62 28.2929 129.62 29.1809V39.3242H125.406Z" fill="#2C3144"/>
<path fill-rule="evenodd" clip-rule="evenodd" d="M57.439 23.2979C57.4668 22.9372 57.3834 22.5625 57.1886 22.2434L55.7144 19.7041H54.1985L56.0482 22.8955C56.1178 23.0204 56.1456 23.1592 56.1177 23.2979H57.439Z" fill="#2C3144"/>
<path fill-rule="evenodd" clip-rule="evenodd" d="M67.1187 30.3881L62.4596 38.4361C62.1397 38.9911 61.5556 39.3242 60.9159 39.3242H51.6116C50.9718 39.3242 50.3877 38.9773 50.0678 38.4361L47.3002 33.6489L46.5353 32.3307L45.4087 30.3881C45.0889 29.8331 45.0889 29.1532 45.4087 28.5981L50.0678 20.5502C50.3877 19.9951 50.9718 19.6621 51.6116 19.6621H54.2123L56.0621 22.8674C56.1316 22.9923 56.1594 23.1311 56.1316 23.2698H52.6686L49.0665 29.5001L50.6937 32.3307L51.3612 33.4963L52.6547 35.7442H59.8589L63.461 29.5139L59.8589 23.2837H57.4528C57.4806 22.9229 57.3972 22.5483 57.2025 22.2291L55.7283 19.676H60.9159C61.5556 19.676 62.1397 20.009 62.4596 20.564L67.1187 28.612C67.4386 29.1532 67.4386 29.8331 67.1187 30.3881Z" fill="#2C3144"/>
<path fill-rule="evenodd" clip-rule="evenodd" d="M46.5631 32.3311H42.6133V33.6493H47.328L46.5631 32.3311Z" fill="#F17900"/>
<path fill-rule="evenodd" clip-rule="evenodd" d="M57.4668 23.2701C57.4528 23.5615 57.3694 23.839 57.2303 24.1026L52.2653 32.6918C52.0567 33.0387 51.7507 33.3162 51.3891 33.4827L50.7215 32.3171C50.8884 32.2894 51.0414 32.1922 51.1248 32.0396L56.076 23.4505C56.1177 23.395 56.1316 23.3256 56.1455 23.2701C56.1733 23.1313 56.1594 22.9787 56.076 22.8538L54.2263 19.6624L51.1248 14.2785C51.0136 14.0982 50.8189 13.9871 50.6102 13.9871H40.6801C40.4715 13.9871 40.2768 14.0982 40.1794 14.2785L35.2144 22.8538C35.1031 23.0481 35.1031 23.2701 35.2144 23.4505L35.6872 24.2553L35.7012 24.283L37.8569 28.0295L37.8847 28.0711L38.3993 28.9592V31.5956L37.0641 29.2922L37.0502 29.2644L34.8806 25.5318L34.8667 25.4902L34.0739 24.1026C33.7402 23.5198 33.7402 22.7983 34.0739 22.2016L39.039 13.6125C39.3728 13.0297 39.9986 12.6689 40.6801 12.6689H50.6102C51.2917 12.6689 51.9176 13.0297 52.2653 13.6125L55.7561 19.6624L57.2303 22.2016C57.4111 22.5347 57.4946 22.8954 57.4668 23.2701Z" fill="#F17900"/>
<path d="M38.747 19.6621L35.7012 24.2828L37.8569 28.0292L37.8847 28.0709L38.4271 27.2383V39.3242H42.655V19.6621H38.747ZM37.0502 29.2642L34.8806 25.5316L32.0156 29.8886L25.2565 19.6621H21.3345V39.3242H25.5624V27.2106L30.7639 35.1059H33.2256L37.0641 29.2919L37.0502 29.2642Z" fill="#2C3144"/>
</svg>
